# xmcd CD database file
#
# Track frame offsets:
#	150
#	28428
#	55187
#	81548
#	101935
#	118722
#	146421
#	172053
#	207668
#	236522
#
# Disc length: 3474 seconds
#
# Revision: 0
# Processed by: cddbd v1.5.2PL0 Copyright (c) Steve Scherf et al.
# Submitted via: CDex 1.70beta2
#
DISCID=9b0d900a
DTITLE=Legends and Lions - Swingin'
DYEAR=2006
DGENRE=Jazz
TTITLE0=Mighty Burner - Ron Blake
TTITLE1=Blues For Hamp - Terry Gibbs
TTITLE2=I'm Old Fashioned - B. Shank, M. Wofford, B. Magnussan, J. LaBarbera
TTITLE3=Comment Allez-vous - Ilona Knopfler
TTITLE4=Seven Steps To Heaven - Eugene Maslov
TTITLE5=Nancy Jo - Gerald Wilson Orchestra
TTITLE6=Blues for Matt B - Sean Jones
TTITLE7=Old Man Jazz - E. Andrews, O. Brashear, L. Taylor, P. Wright, A. McKibbon, R. McCurdy
TTITLE8=Centerpiece - K. Burrell, J. Moody, T. Edwards, O. Brashear, C. Walton, A. McKibbon, W. Jones
TTITLE9=The Masquerade Is Over - E. Maslov
EXTD=YEAR: 2006
EXTT0=
EXTT1=
EXTT2=
EXTT3=
EXTT4=
EXTT5=
EXTT6=
EXTT7=
EXTT8=
EXTT9=
PLAYORDER=
